<svg xmlns="http://www.w3.org/2000/svg" xmlns:xlink="http://www.w3.org/1999/xlink" viewBox="0,0,256,256" width="48px" height="48px" fill-rule="nonzero"><defs><linearGradient x1="23.977" y1="6.159" x2="23.977" y2="42.046" gradientUnits="userSpaceOnUse" id="color-1"><stop offset="0" stop-color="#f44f5a"></stop><stop offset="0.443" stop-color="#ee3d4a"></stop><stop offset="1" stop-color="#e52030"></stop></linearGradient></defs><g transform="translate(-70.4,-70.4) scale(1.55,1.55)"><g fill="none" fill-rule="nonzero" stroke="none" stroke-width="1" stroke-linecap="butt" stroke-linejoin="miter" stroke-miterlimit="10" stroke-dasharray="" stroke-dashoffset="0" font-family="none" font-weight="none" font-size="none" text-anchor="none" style="mix-blend-mode: normal"><g transform="scale(5.33333,5.33333)"><path d="M40.004,41.969l-31.973,0.031c-1.099,0.001 -1.999,-0.897 -2,-1.996l-0.031,-31.973c-0.001,-1.099 0.897,-1.999 1.996,-2l31.973,-0.031c1.099,-0.001 1.999,0.897 2,1.996l0.031,31.973c0.001,1.099 -0.897,1.999 -1.996,2z" fill="url(#color-1)"></path><path d="M29.5,15c-2.413,0 -4.455,1.451 -5.5,2.364c-1.045,-0.913 -3.087,-2.364 -5.5,-2.364c-3.584,0 -6.5,2.916 -6.5,6.5c0,5.476 7.578,11.243 10.835,13.468c0.354,0.242 0.76,0.363 1.166,0.363c0.405,0 0.811,-0.121 1.165,-0.363c3.257,-2.227 10.834,-7.996 10.834,-13.468c0,-3.584 -2.916,-6.5 -6.5,-6.5z" fill="#000000" opacity="0.05"></path><path d="M29.5,15.5c-2.547,0 -4.669,1.747 -5.5,2.538c-0.831,-0.791 -2.953,-2.538 -5.5,-2.538c-3.309,0 -6,2.691 -6,6c0,5.384 8.127,11.354 10.618,13.056c0.268,0.183 0.576,0.274 0.883,0.274c0.307,0 0.615,-0.092 0.883,-0.274c2.49,-1.702 10.616,-7.675 10.616,-13.056c0,-3.309 -2.691,-6 -6,-6z" fill="#000000" opacity="0.07"></path><path d="M24,18.75c0,0 2.463,-2.75 5.5,-2.75c3.037,0 5.5,2.496 5.5,5.5c0,5.17 -8.101,11.072 -10.399,12.643c-0.364,0.249 -0.837,0.249 -1.201,0c-2.299,-1.571 -10.4,-7.473 -10.4,-12.643c0,-3.004 2.463,-5.5 5.5,-5.5c3.037,0 5.5,2.75 5.5,2.75z" fill="#ffffff"></path></g></g></g></svg>